<svg width="21" height="20" viewBox="0 0 21 20" fill="none" xmlns="http://www.w3.org/2000/svg">
<path d="M4.40738 2.22321C4.40709 2.81255 4.17464 3.37763 3.76116 3.79415C3.34768 4.21066 2.78704 4.44449 2.20259 4.4442C1.61813 4.4439 1.05773 4.20951 0.644667 3.79257C0.231601 3.37564 -0.000291952 2.81033 2.7586e-07 2.22099C0.000292503 1.63165 0.232747 1.06657 0.646225 0.650052C1.0597 0.233536 1.62034 -0.00029439 2.20479 2.78164e-07C2.78925 0.000294947 3.34965 0.234691 3.76271 0.651624C4.17578 1.06856 4.40767 1.63387 4.40738 2.22321ZM4.47349 6.08966H0.0661109V20H4.47349V6.08966ZM11.4372 6.08966H7.05181V20H11.3931V12.7004C11.3931 8.63397 16.6489 8.25621 16.6489 12.7004V20H21.0012V11.1894C21.0012 4.3342 13.2221 4.58975 11.3931 7.95623L11.4372 6.08966Z" fill="white"/>
</svg>
